<svg width="1200" height="80" viewBox="0 0 1200 80" fill="none" xmlns="http://www.w3.org/2000/svg">
<path d="M0 80H1200V50C1180 50 1170 10 1150 10C1130 10 1125 55 1105 55C1085 55 1080 25 1060 25C1040 25 1035 50 1010 50C985 50 980 5 955 5C930 5 925 52 900 52C875 52 870 20 845 20C820 20 815 48 790 48C765 48 760 8 735 8C710 8 705 50 680 50C655 50 650 22 625 22C600 22 595 50 570 50C545 50 540 12 515 12C490 12 485 52 460 52C435 52 430 25 405 25C380 25 375 50 350 50C325 50 320 8 295 8C270 8 265 52 240 52C215 52 210 20 185 20C160 20 155 50 130 50C105 50 100 15 75 15C50 15 45 52 25 52C12 52 5 40 0 40V80Z" fill="#4A2618"/>
</svg>
