<svg width="1200" height="80" viewBox="0 0 1200 80" fill="none" xmlns="http://www.w3.org/2000/svg">
<path d="M0 0H1200V30C1180 30 1170 70 1150 70C1130 70 1125 25 1105 25C1085 25 1080 55 1060 55C1040 55 1035 30 1010 30C985 30 980 75 955 75C930 75 925 28 900 28C875 28 870 60 845 60C820 60 815 32 790 32C765 32 760 72 735 72C710 72 705 30 680 30C655 30 650 58 625 58C600 58 595 30 570 30C545 30 540 68 515 68C490 68 485 28 460 28C435 28 430 55 405 55C380 55 375 30 350 30C325 30 320 72 295 72C270 72 265 28 240 28C215 28 210 60 185 60C160 60 155 30 130 30C105 30 100 65 75 65C50 65 45 28 25 28C12 28 5 40 0 40V0Z" fill="#4A2618"/>
</svg>
